<svg width="24" height="24" viewBox="0 0 24 24" fill="none" xmlns="http://www.w3.org/2000/svg">
<path d="M15.8929 15.8929L22 22M10.4643 17.9286C11.4445 17.9286 12.4151 17.7355 13.3207 17.3604C14.2264 16.9853 15.0492 16.4355 15.7423 15.7423C16.4355 15.0492 16.9853 14.2264 17.3604 13.3207C17.7355 12.4151 17.9286 11.4445 17.9286 10.4643C17.9286 9.48406 17.7355 8.51344 17.3604 7.60783C16.9853 6.70222 16.4355 5.87936 15.7423 5.18624C15.0492 4.49312 14.2264 3.9433 13.3207 3.56818C12.4151 3.19307 11.4445 3 10.4643 3C8.48463 3 6.58606 3.78641 5.18624 5.18624C3.78641 6.58606 3 8.48463 3 10.4643C3 12.4439 3.78641 14.3425 5.18624 15.7423C6.58606 17.1422 8.48463 17.9286 10.4643 17.9286Z" stroke="white" stroke-width="2"/>
</svg>
