<svg width="15" height="13" viewBox="0 0 15 13" fill="none" xmlns="http://www.w3.org/2000/svg">
<path d="M15 9.16667H6.92308M6.92308 9.16667C6.92308 9.7855 6.67995 10.379 6.24717 10.8166C5.81439 11.2542 5.22742 11.5 4.61538 11.5C4.00335 11.5 3.41638 11.2542 2.9836 10.8166C2.55082 10.379 2.30769 9.7855 2.30769 9.16667C2.30769 8.54783 2.55082 7.95434 2.9836 7.51675C3.41638 7.07917 4.00335 6.83333 4.61538 6.83333C5.22742 6.83333 5.81439 7.07917 6.24717 7.51675C6.67995 7.95434 6.92308 8.54783 6.92308 9.16667ZM8.07692 3.33333H0M8.07692 3.33333C8.07692 3.95217 8.32005 4.54566 8.75283 4.98325C9.18561 5.42083 9.77258 5.66667 10.3846 5.66667C10.9967 5.66667 11.5836 5.42083 12.0164 4.98325C12.4492 4.54566 12.6923 3.95217 12.6923 3.33333C12.6923 2.71449 12.4492 2.121 12.0164 1.68342C11.5836 1.24583 10.9967 1 10.3846 1C9.77258 1 9.18561 1.24583 8.75283 1.68342C8.32005 2.121 8.07692 2.71449 8.07692 3.33333Z" stroke="#0A0A0A" stroke-width="2"/>
</svg>
