<svg width="30" height="27" viewBox="0 0 30 27" fill="none" xmlns="http://www.w3.org/2000/svg">
<path d="M26.7494 2.66699V18.667H23.8914L24.5647 18.2305C24.7263 18.125 24.8118 17.9683 24.8313 17.7875L24.8356 17.7085C24.8386 16.7598 23.1924 15.2594 21.2279 16.426L21.0994 16.5059L17.5807 18.667L16.078 18.6674C16.1922 17.9928 15.9669 17.3946 15.4889 17.3401L15.4166 17.336L2.74869 17.3357L2.74935 2.66699H26.7494Z" fill="#00719C" fill-opacity="0.27"/>
<path d="M28.0833 0C28.7862 0 29.3621 0.543918 29.413 1.23383L29.4167 1.33333V20C29.4167 20.7029 28.8727 21.2788 28.1828 21.3297L28.0833 21.3333H19.786L21.8387 20H28.0833V1.33333H1.41666V17.3355C1.07477 17.3355 0.79299 17.5929 0.75448 17.9245L0.749995 18.0022L0.749947 21.1549C0.382093 20.9421 0.125348 20.5586 0.0880249 20.1127L0.0833282 20V1.33333C0.0833282 0.630425 0.627247 0.0545565 1.31715 0.00365702L1.41666 0H28.0833ZM14.75 6C17.3273 6 19.4167 8.08934 19.4167 10.6667C19.4167 13.244 17.3273 15.3333 14.75 15.3333C12.1727 15.3333 10.0833 13.244 10.0833 10.6667C10.0833 8.08934 12.1727 6 14.75 6ZM14.75 7.33333C12.909 7.33333 11.4167 8.82572 11.4167 10.6667C11.4167 12.5076 12.909 14 14.75 14C16.5909 14 18.0833 12.5076 18.0833 10.6667C18.0833 8.82572 16.5909 7.33333 14.75 7.33333ZM4.74999 4C5.11818 4 5.41666 4.29848 5.41666 4.66667C5.41666 5.03486 5.11818 5.33333 4.74999 5.33333C4.3818 5.33333 4.08333 5.03486 4.08333 4.66667C4.08333 4.29848 4.3818 4 4.74999 4Z" fill="#001F2B"/>
<path d="M15.4165 17.3357C16.331 17.3357 16.4231 19.2103 15.171 20.1479L21.0993 16.5055C23.12 15.1935 24.8387 16.7389 24.8356 17.7082C24.8347 17.9222 24.7493 18.1095 24.5647 18.2302L13.075 25.6916C12.4435 26.1016 11.6681 26.2256 10.9403 26.033L1.24607 23.4669C0.953655 23.3895 0.75 23.1249 0.75 22.8224V18.0022C0.75 17.634 1.04848 17.3355 1.41667 17.3355L15.4165 17.3357Z" stroke="#0A0A0A" stroke-width="1.5"/>
<path d="M8.08333 20.6693H13.4507C14.2961 20.6693 14.9187 20.3942 15.3478 20.002" stroke="#0A0A0A" stroke-width="1.5"/>
</svg>
