<svg width="32" height="32" viewBox="0 0 32 32" fill="none" xmlns="http://www.w3.org/2000/svg">
<path d="M27.9994 6.66699V22.667H25.1414L25.8147 22.2305C25.9763 22.125 26.0618 21.9683 26.0813 21.7875L26.0856 21.7085C26.0886 20.7598 24.4424 19.2594 22.4779 20.426L22.3494 20.5059L18.8307 22.667L17.328 22.6674C17.4422 21.9928 17.2169 21.3946 16.7389 21.3401L16.6666 21.336L3.99869 21.3357L3.99935 6.66699H27.9994Z" fill="#00719C" fill-opacity="0.27"/>
<path d="M29.3333 4C30.0362 4 30.6121 4.54392 30.663 5.23383L30.6667 5.33333V24C30.6667 24.7029 30.1227 25.2788 29.4328 25.3297L29.3333 25.3333H21.036L23.0887 24H29.3333V5.33333H2.66666V21.3355C2.32477 21.3355 2.04299 21.5929 2.00448 21.9245L1.99999 22.0022L1.99995 25.1549C1.63209 24.9421 1.37535 24.5586 1.33802 24.1127L1.33333 24V5.33333C1.33333 4.63043 1.87725 4.05456 2.56715 4.00366L2.66666 4H29.3333ZM16 10C18.5773 10 20.6667 12.0893 20.6667 14.6667C20.6667 17.244 18.5773 19.3333 16 19.3333C13.4227 19.3333 11.3333 17.244 11.3333 14.6667C11.3333 12.0893 13.4227 10 16 10ZM16 11.3333C14.159 11.3333 12.6667 12.8257 12.6667 14.6667C12.6667 16.5076 14.159 18 16 18C17.8409 18 19.3333 16.5076 19.3333 14.6667C19.3333 12.8257 17.8409 11.3333 16 11.3333ZM5.99999 8C6.36818 8 6.66666 8.29848 6.66666 8.66667C6.66666 9.03486 6.36818 9.33333 5.99999 9.33333C5.6318 9.33333 5.33333 9.03486 5.33333 8.66667C5.33333 8.29848 5.6318 8 5.99999 8Z" fill="white"/>
<path d="M16.6665 21.3357C17.581 21.3357 17.6731 23.2103 16.421 24.1479L22.3493 20.5055C24.37 19.1935 26.0887 20.7389 26.0856 21.7082C26.0847 21.9222 25.9993 22.1095 25.8147 22.2302L14.325 29.6916C13.6935 30.1016 12.9181 30.2256 12.1903 30.033L2.49607 27.4669C2.20366 27.3895 2 27.1249 2 26.8224V22.0022C2 21.634 2.29848 21.3355 2.66667 21.3355L16.6665 21.3357Z" stroke="white" stroke-width="1.5"/>
<path d="M9.33333 24.6693H14.7007C15.5461 24.6693 16.1687 24.3942 16.5978 24.002" stroke="white" stroke-width="1.5"/>
</svg>
