<svg width="51" height="51" viewBox="0 0 51 51" fill="none" xmlns="http://www.w3.org/2000/svg">
<path d="M32.167 16.5C32.8924 16.4993 33.5931 16.7879 34.1221 17.3096C34.6514 17.8317 34.9674 18.5473 35 19.3086V29.0674C35.0007 29.8297 34.7156 30.5608 34.209 31.1074C33.7055 31.6506 33.0223 31.9702 32.3018 32.0059H28.0322L27.8818 32.1953L25.5 35.1953L23.1182 32.1953L22.9678 32.0059H18.833C18.1297 32.0057 17.4489 31.7344 16.9258 31.2402C16.4022 30.7456 16.0748 30.0633 16.0117 29.3271V29.3262L16 29.1914V19.4385L16.0127 19.1543C16.0736 18.4963 16.3478 17.8778 16.791 17.3994C17.2948 16.8558 17.9782 16.5354 18.6992 16.5H32.167ZM18.833 16.876C18.1909 16.8751 17.5757 17.127 17.1123 17.5762C16.649 18.0255 16.3718 18.6379 16.334 19.2861L16.333 19.3008V29.0664C16.3319 29.7157 16.5719 30.3439 17.0068 30.8213C17.4422 31.2989 18.0413 31.5901 18.6826 31.6299L18.6982 31.6309H23.125L25.1074 34.1367L25.5 34.6328L25.8926 34.1367L27.875 31.6309H32.167V31.6299C32.8091 31.6307 33.4243 31.379 33.8877 30.9297C34.3509 30.4805 34.6282 29.8688 34.666 29.2207L34.667 29.2061V19.4385C34.6678 18.7896 34.4278 18.1626 33.9932 17.6855C33.5578 17.2077 32.9588 16.9167 32.3174 16.877L32.3018 16.876H18.833Z" fill="white" stroke="white"/>
<circle cx="35" cy="16" r="4" fill="#00719C"/>
<rect x="0.5" y="0.5" width="50" height="50" rx="16.5" stroke="white"/>
</svg>
