<svg width="24" height="24" viewBox="0 0 24 24" fill="none" xmlns="http://www.w3.org/2000/svg">
<path d="M12 2.5C13.2476 2.5 14.4831 2.74524 15.6357 3.22266C16.7883 3.70008 17.8356 4.40008 18.7178 5.28223C19.5999 6.16437 20.2999 7.21168 20.7773 8.36426C21.2548 9.51685 21.5 10.7524 21.5 12C21.5 13.2476 21.2548 14.4831 20.7773 15.6357C20.2999 16.7883 19.5999 17.8356 18.7178 18.7178C17.8356 19.5999 16.7883 20.2999 15.6357 20.7773C14.4831 21.2548 13.2476 21.5 12 21.5C9.48044 21.5 7.06382 20.4994 5.28223 18.7178C3.50063 16.9362 2.5 14.5196 2.5 12C2.5 9.48044 3.50063 7.06382 5.28223 5.28223C7.06382 3.50063 9.48044 2.5 12 2.5ZM11.999 6.83301C11.1193 6.83413 10.2663 7.13809 9.58398 7.69336C8.90179 8.24859 8.43183 9.02183 8.25195 9.88281C8.07214 10.7441 8.19343 11.6418 8.59668 12.4238C8.94877 13.1066 9.49724 13.6645 10.167 14.0303V14.7168C8.28035 15.1704 6.62497 16.309 5.52734 17.918L5.29004 18.2646L5.59082 18.5576C7.24679 20.1713 9.50407 21.167 12 21.167C14.4959 21.167 16.7532 20.1713 18.4092 18.5576L18.71 18.2656L18.4727 17.918C17.3753 16.3086 15.7199 15.1698 13.833 14.7158V14.0293C14.3608 13.7425 14.8164 13.3369 15.1592 12.8398C15.5656 12.2505 15.7993 11.5589 15.833 10.8438V10.667C15.833 9.65041 15.4297 8.67493 14.7109 7.95605C14.0371 7.28218 13.1378 6.88497 12.1904 6.83789L12 6.83301H11.999ZM12 2.83301C10.3013 2.83268 8.6357 3.30516 7.18945 4.19629C5.74334 5.0874 4.57304 6.3625 3.80957 7.87988C3.04605 9.39741 2.71885 11.0976 2.86523 12.79C3.01164 14.4825 3.62596 16.101 4.63867 17.4648L5.04004 18.0059L5.44141 17.4648C6.33098 16.2652 7.53195 15.3312 8.91406 14.7656L9.14062 14.6816L9.87109 14.4111L9.32031 13.8594L9.30664 13.8467L9.29395 13.833L9.2793 13.8213L9.12012 13.6768C8.75892 13.3322 8.4618 12.9252 8.24414 12.4746C8.02645 12.024 7.8921 11.5382 7.84668 11.041L7.83301 10.8271V10.667L7.8418 10.4082C7.87975 9.80704 8.04742 9.2201 8.33496 8.68848C8.66373 8.0807 9.13879 7.56421 9.7168 7.18555C10.2948 6.80688 10.958 6.57818 11.6465 6.51953C12.335 6.4609 13.0274 6.57418 13.6611 6.84961C14.2946 7.12499 14.8496 7.55353 15.2764 8.09668C15.7032 8.6401 15.989 9.28195 16.1064 9.96289C16.2238 10.6437 16.1692 11.3432 15.9492 11.998C15.7299 12.6505 15.3525 13.2381 14.8506 13.709L14.7051 13.8359L14.1416 14.3262L14.8096 14.6602L14.8359 14.6738L14.8594 14.6855L14.8838 14.6943C16.3476 15.2473 17.6231 16.2093 18.5596 17.46L18.9619 17.9971L19.3613 17.458C20.372 16.0941 20.9846 14.4755 21.1299 12.7842C21.2751 11.0931 20.9477 9.39501 20.1846 7.87891C19.4213 6.36259 18.2517 5.08708 16.8066 4.19629C15.3616 3.30567 13.6974 2.83363 12 2.83301Z" fill="#0A0A0A" stroke="#717375"/>
</svg>
