<svg width="51" height="51" viewBox="0 0 51 51" fill="none" xmlns="http://www.w3.org/2000/svg">
<path d="M19.167 26.5C21.123 26.5003 22.763 27.8492 23.2109 29.667H35C35.5521 29.6672 36 30.1148 36 30.667C36 31.2192 35.5521 31.6668 35 31.667H23.2109C22.7631 33.4848 21.1231 34.8327 19.167 34.833C16.8659 34.833 15.0002 32.968 15 30.667C15.0002 28.366 16.8659 26.5 19.167 26.5ZM19.167 28.5C17.9705 28.5 17.0002 29.4705 17 30.667C17.0002 31.8635 17.9705 32.833 19.167 32.833C20.3632 32.8327 21.3328 31.8632 21.333 30.667C21.3328 29.4707 20.3632 28.5004 19.167 28.5ZM31.833 17C34.1339 17.0002 35.9988 18.8661 35.999 21.167C35.9988 23.4679 34.1339 25.3328 31.833 25.333C29.8768 25.3329 28.2361 23.9849 27.7881 22.167H16C15.4477 22.167 15 21.7193 15 21.167C15 20.6147 15.4477 20.167 16 20.167H27.7881C28.2362 18.3491 29.8769 17.0001 31.833 17ZM31.833 19C30.6399 19.0002 29.6715 19.9654 29.666 21.1572C29.666 21.1605 29.667 21.1637 29.667 21.167C29.667 21.1699 29.666 21.1729 29.666 21.1758C29.6708 22.3682 30.6395 23.3328 31.833 23.333C33.0294 23.3328 33.9988 22.3634 33.999 21.167C33.9988 19.9706 33.0294 19.0002 31.833 19Z" fill="#717375"/>
<rect x="0.5" y="0.5" width="50" height="50" rx="16.5" stroke="#717375"/>
</svg>
