<svg width="24" height="24" viewBox="0 0 24 24" fill="none" xmlns="http://www.w3.org/2000/svg">
<path d="M12 2C13.3132 2 14.6136 2.25866 15.8268 2.7612C17.0401 3.26375 18.1425 4.00035 19.0711 4.92893C19.9997 5.85752 20.7362 6.95991 21.2388 8.17317C21.7413 9.38642 22 10.6868 22 12C22 13.3132 21.7413 14.6136 21.2388 15.8268C20.7362 17.0401 19.9997 18.1425 19.0711 19.0711C18.1425 19.9997 17.0401 20.7362 15.8268 21.2388C14.6136 21.7413 13.3132 22 12 22C9.34784 22 6.8043 20.9464 4.92893 19.0711C3.05357 17.1957 2 14.6522 2 12C2 9.34784 3.05357 6.8043 4.92893 4.92893C6.8043 3.05357 9.34784 2 12 2ZM12 7.33333C11.2349 7.33423 10.4934 7.59831 9.89997 8.08122C9.30654 8.56414 8.89729 9.23651 8.74094 9.98546C8.58458 10.7344 8.69063 11.5143 9.04128 12.1944C9.39193 12.8744 9.96584 13.4131 10.6667 13.72V15.12L10.5667 15.14C8.68328 15.5149 7.02208 16.6136 5.94 18.2C7.50667 19.7267 9.64 20.6667 12 20.6667C14.36 20.6667 16.4933 19.7267 18.06 18.2C16.9795 16.615 15.3209 15.5165 13.44 15.14L13.3333 15.12V13.72C13.9043 13.4716 14.3942 13.0683 14.7477 12.5558C15.1012 12.0432 15.3041 11.4419 15.3333 10.82V10.6667C15.3333 9.78261 14.9821 8.93477 14.357 8.30964C13.7319 7.68452 12.8841 7.33333 12 7.33333ZM12 3.33333C10.3939 3.333 8.81926 3.77899 7.45186 4.62153C6.08447 5.46406 4.9781 6.67 4.25623 8.10476C3.53436 9.53952 3.22538 11.1466 3.36378 12.7468C3.50217 14.3469 4.0825 15.8772 5.04 17.1667C5.98575 15.8913 7.26321 14.8998 8.73333 14.3L8.96667 14.2133L8.95333 14.2C8.46757 13.7822 8.07304 13.2689 7.79433 12.6919C7.51562 12.115 7.3587 11.4869 7.33333 10.8467V10.6667C7.33401 9.89274 7.52716 9.13114 7.89538 8.45042C8.2636 7.76971 8.79534 7.19126 9.44272 6.76716C10.0901 6.34306 10.8328 6.08662 11.6039 6.02093C12.375 5.95525 13.1504 6.08237 13.8602 6.39087C14.57 6.69936 15.1919 7.17954 15.6699 7.78817C16.148 8.39679 16.4672 9.11476 16.5987 9.87742C16.7303 10.6401 16.6701 11.4235 16.4236 12.1571C16.1771 12.8907 15.7521 13.5515 15.1867 14.08L15.0333 14.2133L15.06 14.2267C16.6133 14.8133 17.9667 15.8333 18.96 17.16C19.9156 15.8705 20.4943 14.3409 20.6317 12.7418C20.7691 11.1427 20.4597 9.53687 19.7381 8.10326C19.0164 6.66965 17.9109 5.46459 16.5446 4.62238C15.1783 3.78018 13.605 3.33392 12 3.33333Z" fill="#0A0A0A"/>
</svg>
